<svg xmlns="http://www.w3.org/2000/svg" width="85" height="26.686" viewBox="0 0 85 26.686">
  <path id="Vector" d="M44.8,6.705a1.726,1.726,0,1,1-1.726-1.736A1.728,1.728,0,0,1,44.8,6.705Zm-7.117,3.5v.427a3.309,3.309,0,0,0-2.576-1.069,5.1,5.1,0,0,0-5.152,5.289,5.1,5.1,0,0,0,5.152,5.289,3.218,3.218,0,0,0,2.576-1.1V19.5a.364.364,0,0,0,.372.374H40.2V9.83H38.053a.383.383,0,0,0-.372.375Zm0,6.437a2.633,2.633,0,0,1-2.151,1.1,2.789,2.789,0,0,1-3-2.885,2.789,2.789,0,0,1,3-2.885,2.706,2.706,0,0,1,2.151,1.1ZM41.8,9.83h2.549V19.875H41.8V9.83Zm38.079-.267A3.311,3.311,0,0,0,77.3,10.632V5H74.75V19.875H76.9a.381.381,0,0,0,.371-.374v-.454a3.282,3.282,0,0,0,2.576,1.1A5.114,5.114,0,0,0,85,14.853a5.11,5.11,0,0,0-5.125-5.29Zm-.425,8.148a2.6,2.6,0,0,1-2.151-1.1v-3.58a2.877,2.877,0,0,1,2.151-1.1,2.788,2.788,0,0,1,3,2.885A2.788,2.788,0,0,1,79.451,17.711Zm-6.028-3.793V19.9h-2.55v-5.69c0-1.656-.531-2.324-1.964-2.324a2.847,2.847,0,0,0-2.072.989v7H64.289V9.831h2.017a.381.381,0,0,1,.372.374v.427a3.646,3.646,0,0,1,2.708-1.069,4.12,4.12,0,0,1,2.789.962c.9.748,1.248,1.709,1.248,3.393ZM58.1,9.563a3.31,3.31,0,0,0-2.576,1.069V5H52.976V19.875h2.151A.381.381,0,0,0,55.5,19.5v-.454a3.282,3.282,0,0,0,2.576,1.1,5.114,5.114,0,0,0,5.152-5.289A5.078,5.078,0,0,0,58.1,9.563Zm-.425,8.148a2.6,2.6,0,0,1-2.151-1.1v-3.58a2.876,2.876,0,0,1,2.151-1.1,2.788,2.788,0,0,1,3,2.885A2.788,2.788,0,0,1,57.676,17.711Zm-6.9-8.148A4.032,4.032,0,0,1,51.94,9.7v2.377a3.391,3.391,0,0,0-3.452.8V19.9h-2.55V9.83H48.09a.381.381,0,0,1,.371.374v.427a3.481,3.481,0,0,1,2.311-1.069ZM24.3,18.966c-.133-.32-.266-.668-.4-.962-.213-.481-.425-.935-.611-1.362l-.027-.027c-1.833-4.007-3.8-8.067-5.869-12.074l-.08-.161q-.327-.623-.637-1.256a7.692,7.692,0,0,0-.956-1.469A4.28,4.28,0,0,0,12.35,0a4.446,4.446,0,0,0-3.4,1.6,9.165,9.165,0,0,0-.956,1.469q-.311.632-.637,1.256l-.08.161C5.233,8.495,3.242,12.555,1.41,16.562l-.027.053c-.186.428-.4.882-.611,1.362q-.2.441-.4.962a6.027,6.027,0,0,0-.319,2.885,5.671,5.671,0,0,0,3.452,4.434,5.422,5.422,0,0,0,2.151.427,5.96,5.96,0,0,0,.691-.054A6.986,6.986,0,0,0,9,25.725,13.466,13.466,0,0,0,12.3,22.947a13.972,13.972,0,0,0,3.293,2.778,6.988,6.988,0,0,0,2.655.908,5.9,5.9,0,0,0,.691.054,5.328,5.328,0,0,0,2.151-.427,5.661,5.661,0,0,0,3.452-4.434,5.089,5.089,0,0,0-.24-2.858ZM12.323,20.355a13.2,13.2,0,0,1-2.682-4.968,4.334,4.334,0,0,1-.08-1.63,2.6,2.6,0,0,1,.425-1.122,2.815,2.815,0,0,1,2.337-1.175,2.714,2.714,0,0,1,2.337,1.175,2.608,2.608,0,0,1,.425,1.122,4.324,4.324,0,0,1-.08,1.63A13.628,13.628,0,0,1,12.323,20.355Zm10.594,1.256A3.964,3.964,0,0,1,18.483,25a5.208,5.208,0,0,1-2.018-.694,12.426,12.426,0,0,1-3.027-2.591,15.1,15.1,0,0,0,3.213-5.9,6.722,6.722,0,0,0,.133-2.271,4.346,4.346,0,0,0-.717-1.816,4.467,4.467,0,0,0-3.744-1.9,4.534,4.534,0,0,0-3.744,1.9,4.35,4.35,0,0,0-.717,1.816,5.581,5.581,0,0,0,.133,2.271,15.53,15.53,0,0,0,3.213,5.93A11.946,11.946,0,0,1,8.18,24.336a5.192,5.192,0,0,1-2.018.694,4.225,4.225,0,0,1-2.018-.267,3.966,3.966,0,0,1-2.416-3.126,4.444,4.444,0,0,1,.239-2.083c.079-.267.212-.534.345-.855.186-.428.4-.882.611-1.336l.027-.053c1.832-3.98,3.8-8.041,5.842-11.994l.08-.161c.213-.4.425-.828.637-1.229a5.87,5.87,0,0,1,.744-1.176,2.777,2.777,0,0,1,4.249,0,5.915,5.915,0,0,1,.744,1.176c.213.4.425.828.637,1.229l.08.161q3.02,5.954,5.815,12.02v.027c.213.428.4.908.611,1.336.133.32.266.587.345.854a4.54,4.54,0,0,1,.185,2.056Z" fill="#718087"/>
</svg>
