<svg xmlns="http://www.w3.org/2000/svg" width="71" height="23" viewBox="0 0 71 23">
  <path id="Vector" d="M14.682,11a4.49,4.49,0,0,1,3.021,1.47,5.174,5.174,0,0,1,1.275,3.7,5.887,5.887,0,0,1-1.888,4.6,7.9,7.9,0,0,1-5.476,1.707H0V0H11.566a7.158,7.158,0,0,1,4.91,1.66,5.774,5.774,0,0,1,1.841,4.458,4.651,4.651,0,0,1-1.18,3.367,3.938,3.938,0,0,1-2.5,1.375ZM5.523,9.295h4.815a2.827,2.827,0,0,0,1.983-.711,2.465,2.465,0,0,0,.755-1.849,2.089,2.089,0,0,0-.708-1.66,2.584,2.584,0,0,0-1.794-.616H5.523Zm5.1,8.726a2.988,2.988,0,0,0,2.03-.664,2.366,2.366,0,0,0,.708-1.849,2.111,2.111,0,0,0-.755-1.755,2.777,2.777,0,0,0-1.888-.664H5.523v4.932ZM38.1,22.478H32.762V20.866A6.749,6.749,0,0,1,27.616,23,6.1,6.1,0,0,1,22.9,21.056,7.231,7.231,0,0,1,21.1,15.981V5.643h5.287v9.2a3.639,3.639,0,0,0,.8,2.419,2.581,2.581,0,0,0,2.077.9,3.1,3.1,0,0,0,2.549-1.138,5.629,5.629,0,0,0,.9-3.557V5.643h5.334Zm16.475,0H40.41v-1L47.066,9.911H40.6V5.643H54.477v1L47.821,18.21h6.7v4.268Zm16.428,0H56.885v-1L63.494,9.911H57.027V5.643H70.906v1L64.249,18.21h6.7Z" fill="#718087"/>
</svg>
