<svg xmlns="http://www.w3.org/2000/svg" width="97.422" height="18.128" viewBox="0 0 97.422 18.128">
  <g id="Group_14" data-name="Group 14" transform="translate(-121 -4.279)">
    <path id="H" d="M13.657,0V7.189H3.646V0L0,0V18.118H3.646V10.335H13.657v7.784h3.652V0Z" transform="translate(140.262 4.289)" fill="#718087"/>
    <path id="E" d="M0,0V18.111H16l-2.026-3.188H3.656V10.331h9.987V7.26H3.656V3.114h10.3L15.938,0Z" transform="translate(202.426 4.293)" fill="#718087"/>
    <path id="C" d="M5.708,0C1.916,0,0,2.306,0,5.661v6.763c0,3.883,2.469,5.7,5.69,5.7h11.44l-2.121-3.312H6.4c-1.83,0-2.627-.661-2.627-2.709V5.962c0-1.979.671-2.752,2.675-2.752H15.1L17.135,0Z" transform="translate(121 4.288)" fill="#718087"/>
    <path id="S" d="M4.58,0C2.389,0,.144,1.321.144,4.707v.87c0,3.53,2.16,4.877,4.322,4.886h7.586c.788,0,1.428.131,1.428,1.463v1.538c-.02,1.2-.617,1.47-1.454,1.47H2.044L0,18.124H12.26c2.956,0,4.963-1.471,4.963-4.868V12.007c0-3.285-1.865-4.837-4.756-4.837H5.223c-.8,0-1.363-.219-1.363-1.409V4.509c0-1.013.384-1.383,1.319-1.383l9.5,0L16.671,0Z" transform="translate(181.844 4.279)" fill="#718087"/>
    <path id="A" d="M8.591,0,0,18.114H4.06l1.673-3.741h9.335l1.668,3.741h4.078L12.2,0Zm1.8,3.761,3.3,7.529H7.112Z" transform="translate(159.574 4.293)" fill="#718087"/>
  </g>
</svg>
