<svg xmlns="http://www.w3.org/2000/svg" width="96" height="23" viewBox="0 0 96 23">
  <path id="Vector" d="M21.384,15.363v4.958c-1.8,1.585-6.11,2.528-9.316,2.528S0,20.866,0,11.547,8.438.219,11.841.219s7.038.618,9.14,2.008V6.588a.376.376,0,1,1-.751,0,7.2,7.2,0,0,0-7.062-5.1C7.76,1.593,4.106,5.8,4.106,11.348S7.657,21.659,13.02,21.508a8.08,8.08,0,0,0,4.434-1.317l.021-4.828a1.65,1.65,0,0,0-1.7-1.882.4.4,0,1,1,0-.793h7.308c.55,0,.55.841,0,.793A1.652,1.652,0,0,0,21.384,15.363ZM70.658,6.592c0,.545-.55.5-.55,0a7.278,7.278,0,0,0-7.062-5.251c-5.407.106-9.066,4.463-9.066,10.01s3.506,10.458,8.865,10.311,7.912-5.4,8.113-6.1.55-.593.55-.049v4.064a18.99,18.99,0,0,1-9.563,3.272c-3.2,0-12.067-1.983-12.067-11.3S58.291,0,61.7,0a17.372,17.372,0,0,1,8.967,2.227V6.592ZM47.973.545c.8,0,.8.744,0,.744a1.65,1.65,0,0,0-1.7,1.882L46.175,14c0,5.186-4.25,9-9.493,9a8.984,8.984,0,0,1-9.337-9V3.17a1.651,1.651,0,0,0-1.7-1.882c-.8,0-.8-.744,0-.744h7.411c.8,0,.8.744,0,.744a1.651,1.651,0,0,0-1.7,1.882l-.008,12.1a6.681,6.681,0,0,0,6.717,6.625c3.7,0,6.693-3.711,6.693-7.365L44.57,3.17a1.649,1.649,0,0,0-1.7-1.882c-.8,0-.8-.744,0-.744ZM95.146,6.592c0,.545-.55.5-.55,0a7.274,7.274,0,0,0-7.062-5.251c-5.407.106-9.066,4.463-9.066,10.01s3.506,10.458,8.865,10.311,7.912-5.4,8.113-6.1.554-.593.554-.049v4.064a19.005,19.005,0,0,1-9.567,3.272c-3.2,0-12.067-1.983-12.067-11.3S82.779,0,86.187,0A17.357,17.357,0,0,1,95.15,2.227V6.592Z" transform="translate(0 0)" fill="#718087" opacity="0.8"/>
</svg>
