<svg xmlns="http://www.w3.org/2000/svg" width="94.179" height="20.106" viewBox="0 0 94.179 20.106">
  <g id="Group_1" data-name="Group 1" transform="translate(-268.422 -3.29)">
    <path id="Vector" d="M94.178,9.1V7.44H92.121V4.865l-.069.021-1.97.6V7.44H87.033V6.352A1.726,1.726,0,0,1,87.369,5.2a1.186,1.186,0,0,1,.942-.385,2.2,2.2,0,0,1,.894.2l.076.034V3.309L89.245,3.3A3.484,3.484,0,0,0,88.1,3.144a3.348,3.348,0,0,0-1.62.389,2.77,2.77,0,0,0-1.112,1.1,3.277,3.277,0,0,0-.394,1.613V7.44H83.545V9.1h1.432v6.977h2.056V9.1h3.049v4.433c0,1.828.861,2.752,2.56,2.752a4.2,4.2,0,0,0,.873-.1,2.412,2.412,0,0,0,.636-.2l.027-.016V14.294l-.084.055a1.44,1.44,0,0,1-.413.178,1.571,1.571,0,0,1-.406.069,1.1,1.1,0,0,1-.875-.319,1.717,1.717,0,0,1-.279-1.106V9.1ZM78.953,14.6a2.181,2.181,0,0,1-1.749-.735,3.12,3.12,0,0,1-.629-2.075A3.244,3.244,0,0,1,77.2,9.657a2.146,2.146,0,0,1,1.732-.747,2.114,2.114,0,0,1,1.687.713,3.18,3.18,0,0,1,.616,2.113,3.391,3.391,0,0,1-.579,2.14,2.066,2.066,0,0,1-1.706.722Zm.091-7.37a4.509,4.509,0,0,0-3.36,1.24,4.65,4.65,0,0,0-1.214,3.385,4.4,4.4,0,0,0,1.185,3.231,4.3,4.3,0,0,0,3.181,1.194,4.386,4.386,0,0,0,3.294-1.257,4.636,4.636,0,0,0,1.214-3.351,4.523,4.523,0,0,0-1.139-3.254A4.195,4.195,0,0,0,79.045,7.23Zm-7.89,0a3.717,3.717,0,0,0-2.382.736,2.349,2.349,0,0,0-.928,1.917,2.68,2.68,0,0,0,.2,1.07,2.151,2.151,0,0,0,.614.8,5.349,5.349,0,0,0,1.248.7,9.311,9.311,0,0,1,1.039.484,1.445,1.445,0,0,1,.458.376.844.844,0,0,1,.127.49c0,.579-.434.862-1.328.862a3.652,3.652,0,0,1-1.124-.205,4.222,4.222,0,0,1-1.151-.583l-.086-.061V15.8l.031.015a5.093,5.093,0,0,0,1.09.337,5.846,5.846,0,0,0,1.164.134,3.946,3.946,0,0,0,2.514-.74,2.395,2.395,0,0,0,.936-1.961,2.255,2.255,0,0,0-.5-1.483,4.317,4.317,0,0,0-1.711-1.09,4.413,4.413,0,0,1-1.219-.634.887.887,0,0,1-.246-.665.741.741,0,0,1,.312-.615,1.4,1.4,0,0,1,.875-.247A3.582,3.582,0,0,1,72.127,9a3.347,3.347,0,0,1,.91.422l.084.058V7.608l-.032-.014a4.485,4.485,0,0,0-.924-.258,5.638,5.638,0,0,0-1.013-.1ZM62.486,14.6a2.181,2.181,0,0,1-1.749-.735,3.12,3.12,0,0,1-.628-2.073,3.243,3.243,0,0,1,.629-2.131,2.145,2.145,0,0,1,1.732-.747,2.114,2.114,0,0,1,1.687.713,3.18,3.18,0,0,1,.616,2.113,3.391,3.391,0,0,1-.579,2.14,2.062,2.062,0,0,1-1.706.721Zm.092-7.368a4.508,4.508,0,0,0-3.36,1.24A4.65,4.65,0,0,0,58,11.855a4.4,4.4,0,0,0,1.186,3.231A4.3,4.3,0,0,0,62.37,16.28a4.386,4.386,0,0,0,3.294-1.257,4.636,4.636,0,0,0,1.214-3.351,4.523,4.523,0,0,0-1.139-3.254,4.195,4.195,0,0,0-3.161-1.186Zm-7.7,1.7V7.44H52.851v8.634h2.031V11.656a3.078,3.078,0,0,1,.506-1.834A1.553,1.553,0,0,1,56.7,9.129a2.385,2.385,0,0,1,.611.089,1.545,1.545,0,0,1,.473.192l.086.062V7.425l-.033-.014a2.1,2.1,0,0,0-.8-.121,2.081,2.081,0,0,0-1.358.487,2.751,2.751,0,0,0-.781,1.159Zm-5.668-1.7a5.013,5.013,0,0,0-2.469.594A4,4,0,0,0,45.116,9.5a5.334,5.334,0,0,0-.559,2.481,4.577,4.577,0,0,0,.544,2.224,3.821,3.821,0,0,0,1.52,1.536,4.524,4.524,0,0,0,2.22.54,4.861,4.861,0,0,0,2.452-.574l.027-.015V13.832l-.086.062a3.817,3.817,0,0,1-.994.518,3,3,0,0,1-.973.189,2.5,2.5,0,0,1-1.9-.741,2.882,2.882,0,0,1-.7-2.053A2.99,2.99,0,0,1,47.4,9.7a2.487,2.487,0,0,1,1.9-.786,3.262,3.262,0,0,1,1.933.673l.085.062V7.686l-.028-.016a3.351,3.351,0,0,0-.94-.318,5.612,5.612,0,0,0-1.135-.122Zm-6.055.208H41.128v8.634h2.031Zm-.994-3.678A1.224,1.224,0,0,0,41.3,4.1a1.119,1.119,0,0,0-.362.847,1.088,1.088,0,0,0,.357.83,1.237,1.237,0,0,0,.869.331,1.253,1.253,0,0,0,.873-.33,1.084,1.084,0,0,0,.363-.831,1.141,1.141,0,0,0-.353-.838,1.212,1.212,0,0,0-.883-.349ZM37.1,6.8v9.272h2.073V4.026H36.3l-3.646,8.948L29.115,4.026H26.128V16.073h1.948V6.8h.067l3.736,9.272H33.35L37.029,6.8Z" transform="translate(268.422 3.29)" fill="#718087"/>
    <path id="Vector-2" data-name="Vector" d="M9.554,9.554H0V0H9.554Z" transform="translate(268.422 3.29)" fill="#718087"/>
    <path id="Vector-3" data-name="Vector" d="M9.554,20.106H0V10.552H9.554Z" transform="translate(268.422 3.29)" fill="#718087"/>
    <path id="Vector-4" data-name="Vector" d="M20.1,20.106H10.549V10.552H20.1Z" transform="translate(268.422 3.29)" fill="#718087"/>
  </g>
</svg>
