<svg xmlns="http://www.w3.org/2000/svg" width="75" height="16" viewBox="0 0 75 16">
  <path id="Vector" d="M12.175,0h2.884V9.352c0,4.921-3.076,6.648-7.538,6.648C3.076,16,0,14.273,0,9.352V.375C0,.114.127,0,.382,0H3.267V9.206c0,2.949,1.275,4.171,4.255,4.171,3,0,4.271-1.222,4.271-4.171V.375C11.793.114,11.92,0,12.175,0ZM44.828,2.558V6.5h7.3c.127,0,.175.065.127.2l-.8,2.02a.4.4,0,0,1-.43.261H46.74c-1.4,0-1.912.44-1.912,1.4v2.786h9.88c.127,0,.175.065.127.2l-.829,2.1a.4.4,0,0,1-.43.261H42.756c-.829,0-1.147-.293-1.147-.929V1.092c0-.766.414-1.092,1.5-1.092h11.6c.127,0,.175.065.127.179L54.007,2.3a.4.4,0,0,1-.43.261Zm-9.163,8.815c0,3.145-2.167,4.35-5.211,4.35H22.39c-.845,0-1.147-.293-1.147-.929V1.092c0-.766.4-1.092,1.5-1.092h6.55c2.868,0,5.641.505,5.641,3.992A3.613,3.613,0,0,1,33.147,7.43C34.884,7.9,35.665,9.5,35.665,11.373ZM24.414,6.55h5.115c1.689,0,2.167-.668,2.167-2.037s-.478-2.02-2.167-2.02H24.414Zm8.016,4.53c0-1.45-.494-2.167-2.311-2.167H26.342c-1.4,0-1.928.44-1.928,1.4V13.23h5.705C31.936,13.23,32.43,12.513,32.43,11.079Zm42.39,4.644H71.887a.434.434,0,0,1-.43-.261L68.349,9.727H65.5c-1.4,0-1.928.44-1.928,1.4v4.595h-2.8a.337.337,0,0,1-.382-.375V1.092C60.381.326,60.8,0,61.879,0h6.582c3.841,0,6.151,1.026,6.151,4.839,0,2.949-1.386,4.106-3.108,4.562l3.458,6.045C75.026,15.544,75.026,15.723,74.819,15.723ZM71.377,4.9c0-1.6-.43-2.379-2.438-2.379h-5.37V7.283h5.37C70.947,7.283,71.377,6.517,71.377,4.9Z" fill="#718087"/>
</svg>
